<?xml version="1.0" encoding="UTF-8" standalone="no"?>
<!-- Generator: Adobe Illustrator 19.0.0, SVG Export Plug-In . SVG Version: 6.00 Build 0)  -->

<svg
   xmlns:dc="http://purl.org/dc/elements/1.1/"
   xmlns:cc="http://creativecommons.org/ns#"
   xmlns:rdf="http://www.w3.org/1999/02/22-rdf-syntax-ns#"
   xmlns:svg="http://www.w3.org/2000/svg"
   xmlns="http://www.w3.org/2000/svg"
   xmlns:sodipodi="http://sodipodi.sourceforge.net/DTD/sodipodi-0.dtd"
   xmlns:inkscape="http://www.inkscape.org/namespaces/inkscape"
   version="1.1"
   id="Layer_1"
   x="0px"
   y="0px"
   viewBox="0 0 600 600"
   xml:space="preserve"
   inkscape:version="0.91 r13725"
   sodipodi:docname="logo.svg"
   width="600"
   height="600"
   inkscape:export-filename="/Users/mosquito/Downloads/logo2x.png"
   inkscape:export-xdpi="90"
   inkscape:export-ydpi="90"><metadata
     id="metadata4306"><rdf:RDF><cc:Work
         rdf:about=""><dc:format>image/svg+xml</dc:format><dc:type
           rdf:resource="http://purl.org/dc/dcmitype/StillImage" /><dc:title></dc:title></cc:Work></rdf:RDF></metadata><defs
     id="defs4304"><filter
       style="color-interpolation-filters:sRGB"
       inkscape:label="Drop Shadow"
       id="filter4565"><feFlood
         flood-opacity="0.498039"
         flood-color="rgb(0,0,0)"
         result="flood"
         id="feFlood4567" /><feComposite
         in="flood"
         in2="SourceGraphic"
         operator="in"
         result="composite1"
         id="feComposite4569" /><feGaussianBlur
         in="composite1"
         stdDeviation="15.7"
         result="blur"
         id="feGaussianBlur4571" /><feOffset
         dx="3.1"
         dy="3.9267"
         result="offset"
         id="feOffset4573" /><feComposite
         in="SourceGraphic"
         in2="offset"
         operator="over"
         result="composite2"
         id="feComposite4575" /></filter><filter
       style="color-interpolation-filters:sRGB"
       inkscape:label="Drop Shadow"
       id="filter4613"><feFlood
         flood-opacity="0.498039"
         flood-color="rgb(0,0,0)"
         result="flood"
         id="feFlood4615" /><feComposite
         in="flood"
         in2="SourceGraphic"
         operator="in"
         result="composite1"
         id="feComposite4617" /><feGaussianBlur
         in="composite1"
         stdDeviation="4.5"
         result="blur"
         id="feGaussianBlur4619" /><feOffset
         dx="3.1"
         dy="3.9"
         result="offset"
         id="feOffset4621" /><feComposite
         in="SourceGraphic"
         in2="offset"
         operator="over"
         result="composite2"
         id="feComposite4623" /></filter><filter
       style="color-interpolation-filters:sRGB"
       inkscape:label="Drop Shadow"
       id="filter4641"><feFlood
         flood-opacity="0.498039"
         flood-color="rgb(0,0,0)"
         result="flood"
         id="feFlood4643" /><feComposite
         in="flood"
         in2="SourceGraphic"
         operator="in"
         result="composite1"
         id="feComposite4645" /><feGaussianBlur
         in="composite1"
         stdDeviation="4.71204"
         result="blur"
         id="feGaussianBlur4647" /><feOffset
         dx="3.1"
         dy="3.9"
         result="offset"
         id="feOffset4649" /><feComposite
         in="SourceGraphic"
         in2="offset"
         operator="over"
         result="composite2"
         id="feComposite4651" /></filter></defs><sodipodi:namedview
     pagecolor="#ffffff"
     bordercolor="#666666"
     borderopacity="1"
     objecttolerance="10"
     gridtolerance="10"
     guidetolerance="10"
     inkscape:pageopacity="0"
     inkscape:pageshadow="2"
     inkscape:window-width="1379"
     inkscape:window-height="840"
     id="namedview4302"
     showgrid="false"
     inkscape:zoom="0.65917969"
     inkscape:cx="392.66315"
     inkscape:cy="174.00122"
     inkscape:window-x="0"
     inkscape:window-y="0"
     inkscape:window-maximized="0"
     inkscape:current-layer="Layer_1" /><g
     id="g4625"
     style="filter:url(#filter4641)"
     transform="matrix(0.99695198,0,0,1.0345822,44.777574,41.444241)"><rect
       ry="56.939045"
       y="7.833744"
       x="5.9372611"
       height="483.42368"
       width="502.40332"
       id="rect4348"
       style="opacity:1;fill:#3c280f;fill-opacity:1;stroke:#000000;stroke-width:0.31223392;stroke-linecap:round;stroke-linejoin:round;stroke-miterlimit:4;stroke-dasharray:none;stroke-opacity:1" /><path
       sodipodi:nodetypes="ccssssc"
       inkscape:connector-curvature="0"
       id="rect4352"
       d="m 5.7838214,381.91309 502.7779286,0.39472 c 0,0 -0.15369,24.14987 -0.15369,54.14766 0,29.99781 -24.22601,54.14767 -54.31841,54.14767 l -394.228456,0 c -30.092401,0 -54.3184126,-24.14986 -54.3184126,-54.14767 0,-29.99779 0.24104,-43.11311 0.24104,-54.54238 z"
       style="opacity:1;fill:#835721;fill-opacity:1;stroke:#000000;stroke-width:0.31272441;stroke-linecap:round;stroke-linejoin:round;stroke-miterlimit:4;stroke-dasharray:none;stroke-opacity:1" /></g><g
     id="g4316"
     transform="matrix(0.68835886,0,0,0.68835886,121.24896,72.089731)"
     style="filter:url(#filter4565)"><g
       style="fill:#e9cca9;fill-opacity:1"
       id="g4242"><rect
         id="rect4244"
         height="79.870003"
         width="35.720001"
         style="fill:#e9cca9;fill-opacity:1"
         transform="matrix(-0.4472,-0.8944,0.8944,-0.4472,386.5612,858.0407)"
         y="269.63101"
         x="440.57001" /><rect
         id="rect4246"
         height="35.721001"
         width="71.442001"
         style="fill:#e9cca9;fill-opacity:1"
         y="369.11801"
         x="434.60599" /><rect
         id="rect4248"
         height="35.720001"
         width="79.870003"
         style="fill:#e9cca9;fill-opacity:1"
         transform="matrix(-0.8944,-0.4472,0.4472,-0.8944,-36.9299,610.4269)"
         y="291.71201"
         x="13.651" /><rect
         id="rect4250"
         height="35.721001"
         width="71.442001"
         style="fill:#e9cca9;fill-opacity:1"
         y="369.11801"
         x="5.9520001" /></g><path
       style="fill:#835721;fill-opacity:1"
       d="M 328.67578,21.464844 C 306.72116,20.98764 286.65786,35.983682 281.5918,58.210938 277.87546,74.518112 268.8408,178.23511 267.82227,190.00781 l -0.88672,10.25 5.85351,1.33399 -0.12695,1.47461 46.0918,10.5039 0.52929,-1.38086 6.0625,1.38086 3.66602,-9.56836 c 4.11317,-10.7363 40.3106,-105.449391 44.71875,-124.791012 5.79111,-25.40324 -10.16512,-50.780525 -35.56836,-56.570313 -3.17541,-0.723723 -6.34995,-1.107609 -9.48633,-1.175781 z m -10.44922,77.052734 c 0.81347,0.01764 1.63531,0.117019 2.45899,0.304688 6.58742,1.500684 10.72596,8.082504 9.22461,14.669924 -1.81221,7.95054 -15.35586,44.69746 -25.90235,72.48633 l -6.02148,-1.37305 c 2.64621,-29.69366 6.54114,-70.0221 8.03125,-76.55859 1.3131,-5.76342 6.51472,-9.652812 12.20898,-9.529302 z"
       transform="matrix(1.5119725,0,0,1.5119725,-126.31195,-32.437656)"
       id="path4252"
       inkscape:connector-curvature="0" /><path
       style="fill:#ac722b;fill-opacity:1"
       d="m 177.03516,21.464844 c -3.13638,0.0682 -6.31093,0.451975 -9.48633,1.175781 -25.40324,5.790449 -41.35815,31.167735 -35.56836,56.570313 4.40881,19.342282 40.60558,114.056032 44.71875,124.791012 l 3.66601,9.56836 6.0625,-1.38281 0.5293,1.38281 46.0918,-10.50586 -0.12891,-1.47265 5.85547,-1.33399 -0.88672,-10.25 C 236.87013,178.23511 227.83548,74.516159 224.11914,58.208984 219.05308,35.982308 198.98977,20.987441 177.03516,21.464844 Z m 10.45117,77.054687 c 5.69457,-0.123836 10.89588,3.764509 12.20898,9.527349 1.49077,6.53583 5.38375,46.86556 8.0293,76.56054 l -6.02149,1.3711 c -10.54582,-27.78887 -24.09014,-64.5345 -25.90234,-72.48438 -1.50201,-6.58742 2.63653,-13.16923 9.22461,-14.669921 0.82376,-0.187752 1.64743,-0.286997 2.46094,-0.304688 z"
       transform="matrix(1.5119725,0,0,1.5119725,-126.31195,-32.437656)"
       id="path4256"
       inkscape:connector-curvature="0" /><path
       id="path4260"
       d="m 255.999,214.324 c -51.478,0 -100.081,14.852 -136.856,41.82 -38.441,28.19 -59.61,66.196 -59.61,107.018 0,40.822 21.17,78.828 59.61,107.018 36.776,26.969 85.379,41.82 136.856,41.82 51.477,0 154.791,-108.016 154.791,-148.838 0,-40.822 -103.313,-148.838 -154.791,-148.838 z"
       style="fill:#ac722b;fill-opacity:1"
       inkscape:connector-curvature="0" /><path
       id="path4262"
       d="m 255.999,512 c 51.478,0 100.081,-14.852 136.856,-41.82 38.441,-28.19 59.61,-66.196 59.61,-107.018 0,-40.822 -21.169,-78.828 -59.61,-107.018 -36.775,-26.968 -85.378,-41.82 -136.856,-41.82"
       style="fill:#835721;fill-opacity:1"
       inkscape:connector-curvature="0" /><g
       style="fill:#593b17;fill-opacity:1"
       id="g4264"><circle
         id="circle4266"
         r="17.861"
         cy="333.397"
         cx="190.51199"
         style="fill:#593b17;fill-opacity:1" /><circle
         id="circle4268"
         r="17.861"
         cy="333.397"
         cx="321.48901"
         style="fill:#593b17;fill-opacity:1" /></g><ellipse
       id="ellipse4270"
       ry="23.813999"
       rx="35.721001"
       cy="398.88599"
       cx="256.00101"
       style="fill:#3c280f;fill-opacity:1" /><g
       id="g4272" /><g
       id="g4274" /><g
       id="g4276" /><g
       id="g4278" /><g
       id="g4280" /><g
       id="g4282" /><g
       id="g4284" /><g
       id="g4286" /><g
       id="g4288" /><g
       id="g4290" /><g
       id="g4292" /><g
       id="g4294" /><g
       id="g4296" /><g
       id="g4298" /><g
       id="g4300" /></g><text
     xml:space="preserve"
     style="font-style:normal;font-variant:normal;font-weight:normal;font-stretch:normal;font-size:20.81559372px;line-height:125%;font-family:Circe;-inkscape-font-specification:Circe;letter-spacing:0px;word-spacing:0px;fill:#e9cca9;fill-opacity:1;stroke:none;stroke-width:1px;stroke-linecap:butt;stroke-linejoin:miter;stroke-opacity:1;filter:url(#filter4613)"
     x="117.98277"
     y="511.58966"
     id="text4355"
     sodipodi:linespacing="125%"><tspan
       sodipodi:role="line"
       id="tspan4357"
       x="117.98277"
       y="511.58966"
       style="font-size:93.67017365px;fill:#e9cca9;fill-opacity:1">aio-pika</tspan></text>
</svg>